<svg width="28" height="28" viewBox="0 0 28 28" fill="none" xmlns="http://www.w3.org/2000/svg">
<path fill-rule="evenodd" clip-rule="evenodd" d="M15.1671 3.49998C15.1671 2.85565 14.6448 2.33331 14.0005 2.33331C13.3561 2.33331 12.8338 2.85565 12.8338 3.49998V4.16599C8.87631 4.73189 5.83378 8.13425 5.83378 12.2487L5.83378 16.9158C5.83378 16.9158 5.83379 16.9156 5.83378 16.9158C5.83367 16.9181 5.83288 16.9337 5.82782 16.9643C5.82174 17.0011 5.81096 17.0511 5.79316 17.1153C5.75708 17.2456 5.69966 17.4079 5.61943 17.5997C5.45859 17.9843 5.23184 18.4271 4.98106 18.8738C4.50955 19.7137 4.27188 20.7146 4.45031 21.6664C4.63848 22.6702 5.28457 23.5455 6.38802 23.9657C7.37375 24.341 8.68585 24.6842 10.4186 24.8885C10.4599 24.9242 10.5086 24.9651 10.5646 25.01C10.7399 25.1502 10.9904 25.332 11.307 25.5129C11.9354 25.872 12.8644 26.25 14.0005 26.25C15.1365 26.25 16.0655 25.872 16.6939 25.5129C17.0105 25.332 17.261 25.1502 17.4363 25.01C17.4923 24.9651 17.541 24.9242 17.5823 24.8885C19.315 24.6842 20.6272 24.341 21.6129 23.9657C22.7163 23.5455 23.3624 22.6702 23.5506 21.6664C23.729 20.7146 23.4914 19.7137 23.0198 18.8738C22.7691 18.4271 22.5423 17.9843 22.3815 17.5997C22.3012 17.4079 22.2438 17.2456 22.2077 17.1153C22.1899 17.0511 22.1792 17.0011 22.1731 16.9643C22.168 16.9337 22.1672 16.9183 22.1671 16.9161C22.1671 16.9159 22.1671 16.9161 22.1671 16.9161L22.1671 16.9063V12.2493C22.1671 8.13491 19.1247 4.73199 15.1671 4.166V3.49998ZM8.16712 12.2487C8.16712 9.02732 10.7785 6.41665 14.0005 6.41665C17.2223 6.41665 19.8338 9.02775 19.8338 12.2493V16.9166C19.8338 17.4567 20.0361 18.0393 20.2288 18.5C20.4381 19.0004 20.7124 19.53 20.9852 20.016C21.2505 20.4885 21.3137 20.9351 21.2572 21.2365C21.2104 21.486 21.0858 21.6696 20.7826 21.7851C19.5286 22.2625 17.4117 22.75 14.0005 22.75C10.5892 22.75 8.47232 22.2625 7.21832 21.7851C6.91515 21.6696 6.79046 21.486 6.7437 21.2365C6.68719 20.9351 6.75045 20.4885 7.01572 20.016C7.28854 19.53 7.56282 19.0004 7.77211 18.5C7.96476 18.0393 8.16712 17.4567 8.16712 16.9166V12.2487Z" fill="black"/>
</svg>
