<svg width="20" height="20" viewBox="0 0 20 20" fill="none" xmlns="http://www.w3.org/2000/svg">
<path fill-rule="evenodd" clip-rule="evenodd" d="M9.58329 1.66669C5.21104 1.66669 1.66663 5.2111 1.66663 9.58335C1.66663 13.9556 5.21104 17.5 9.58329 17.5C11.4692 17.5 13.2012 16.8405 14.5611 15.7396L16.9107 18.0893C17.2361 18.4147 17.7638 18.4147 18.0892 18.0893C18.4147 17.7638 18.4147 17.2362 18.0892 16.9108L15.7396 14.5611C16.8405 13.2012 17.5 11.4693 17.5 9.58335C17.5 5.2111 13.9555 1.66669 9.58329 1.66669ZM3.33329 9.58335C3.33329 6.13157 6.13151 3.33335 9.58329 3.33335C13.0351 3.33335 15.8333 6.13157 15.8333 9.58335C15.8333 13.0351 13.0351 15.8334 9.58329 15.8334C6.13151 15.8334 3.33329 13.0351 3.33329 9.58335Z" fill="#737373"/>
</svg>
