<svg width="20" height="20" viewBox="0 0 20 20" fill="none" xmlns="http://www.w3.org/2000/svg">
<path d="M6.24996 3.33335C6.7102 3.33335 7.08329 2.96026 7.08329 2.50002C7.08329 2.03978 6.7102 1.66669 6.24996 1.66669H4.99996C3.15901 1.66669 1.66663 3.15907 1.66663 5.00002V15C1.66663 16.841 3.15901 18.3334 4.99996 18.3334H6.24996C6.7102 18.3334 7.08329 17.9603 7.08329 17.5C7.08329 17.0398 6.7102 16.6667 6.24996 16.6667H4.99996C4.07949 16.6667 3.33329 15.9205 3.33329 15L3.33329 5.00002C3.33329 4.07955 4.07949 3.33335 4.99996 3.33335H6.24996Z" fill="black"/>
<path d="M18.9225 10.5893C19.248 10.2638 19.248 9.7362 18.9225 9.41077L15.5892 6.07743C15.2638 5.75199 14.7361 5.75199 14.4107 6.07743C14.0853 6.40287 14.0853 6.93051 14.4107 7.25594L16.3214 9.16669L6.66663 9.16669C6.20639 9.16669 5.83329 9.53978 5.83329 10C5.83329 10.4603 6.20639 10.8334 6.66663 10.8334L16.3214 10.8334L14.4107 12.7441C14.0853 13.0695 14.0853 13.5972 14.4107 13.9226C14.7361 14.248 15.2638 14.248 15.5892 13.9226L18.9225 10.5893Z" fill="black"/>
</svg>
